<svg xmlns="http://www.w3.org/2000/svg" viewBox="0 0 512 512">
  <defs>
    <linearGradient id="bg" x1="0" y1="0" x2="1" y2="1">
      <stop offset="0" stop-color="#12a672"/>
      <stop offset="1" stop-color="#064b34"/>
    </linearGradient>
  </defs>
  <rect width="512" height="512" rx="112" fill="url(#bg)"/>
  <!-- pila de tres monedas -->
  <g>
    <path d="M138 348v34a118 36 0 0 0 236 0v-34z" fill="#a8e6c9"/>
    <ellipse cx="256" cy="348" rx="118" ry="36" fill="#ffffff"/>
    <path d="M138 308v34a118 36 0 0 0 236 0v-34z" fill="#a8e6c9"/>
    <ellipse cx="256" cy="308" rx="118" ry="36" fill="#ffffff"/>
    <path d="M138 268v34a118 36 0 0 0 236 0v-34z" fill="#a8e6c9"/>
    <ellipse cx="256" cy="268" rx="118" ry="36" fill="#ffffff"/>
    <ellipse cx="256" cy="268" rx="78" ry="21" fill="none" stroke="#0a7d55" stroke-width="9" opacity=".28"/>
  </g>
  <!-- brote -->
  <path d="M256 268V172" stroke="#ffffff" stroke-width="16" stroke-linecap="round" fill="none"/>
  <path d="M256 196C256 148 214 122 168 128C168 174 208 202 256 196Z" fill="#9be8c6"/>
  <path d="M256 172C256 124 300 98 348 104C348 152 306 180 256 172Z" fill="#ffffff"/>
</svg>
